<svg width="18" height="18" viewBox="0 0 18 18" fill="none" xmlns="http://www.w3.org/2000/svg">
<path d="M8.8375 16.5046L6.79433 17.9001C6.66632 17.9876 6.49047 17.9405 6.42336 17.8007L5.35169 15.5705C5.32962 15.5246 5.29421 15.4864 5.25009 15.4609C5.20596 15.4354 5.15517 15.4238 5.10437 15.4277L2.63713 15.6147C2.48255 15.6264 2.35385 15.4977 2.36555 15.3431L2.55258 12.8759C2.55643 12.8251 2.54486 12.7743 2.51939 12.7302C2.49391 12.6861 2.45571 12.6507 2.40978 12.6286L0.179573 11.5569C0.0398254 11.4898 -0.00728416 11.314 0.0801506 11.186L1.47571 9.14278C1.50446 9.10071 1.51983 9.05094 1.51983 8.99999C1.51983 8.94904 1.50446 8.89927 1.47571 8.8572L0.0801506 6.81403C-0.00728416 6.68602 0.0398254 6.51017 0.179573 6.44306L2.40978 5.37139C2.45571 5.34933 2.49391 5.31391 2.51939 5.26979C2.54486 5.22566 2.55643 5.17487 2.55258 5.12407L2.36555 2.65684C2.35385 2.50225 2.48255 2.37355 2.63713 2.38525L5.10437 2.57228C5.15517 2.57614 5.20596 2.56457 5.25009 2.53909C5.29421 2.51361 5.32962 2.47541 5.35169 2.42948L6.42336 0.199274C6.49051 0.0595264 6.66632 0.0124168 6.79433 0.0998516L8.8375 1.49541C8.87957 1.52415 8.92934 1.53953 8.98029 1.53953C9.03124 1.53953 9.08101 1.52415 9.12308 1.49541L11.1663 0.0998516C11.2943 0.0124168 11.4701 0.0595264 11.5372 0.199274L12.6089 2.42948C12.631 2.47541 12.6664 2.51361 12.7105 2.53909C12.7546 2.56457 12.8054 2.57614 12.8562 2.57228L15.3234 2.38525C15.478 2.37355 15.6067 2.50225 15.595 2.65684L15.408 5.12407C15.4041 5.17487 15.4157 5.22566 15.4412 5.26979C15.4667 5.31391 15.5049 5.34933 15.5508 5.37139L17.781 6.44306C17.9208 6.51021 17.9679 6.68602 17.8805 6.81403L16.4849 8.8572C16.4562 8.89927 16.4408 8.94904 16.4408 8.99999C16.4408 9.05094 16.4562 9.10071 16.4849 9.14278L17.8804 11.186C17.9679 11.314 17.9208 11.4898 17.781 11.557L15.5508 12.6286C15.5049 12.6507 15.4667 12.6861 15.4412 12.7302C15.4157 12.7744 15.4041 12.8251 15.408 12.8759L15.595 15.3432C15.6067 15.4978 15.478 15.6265 15.3234 15.6148L12.8562 15.4277C12.8054 15.4239 12.7546 15.4354 12.7105 15.4609C12.6664 15.4864 12.631 15.5246 12.6089 15.5705L11.5372 17.8007C11.4701 17.9405 11.2943 17.9876 11.1663 17.9002L9.12308 16.5046C9.08101 16.4758 9.03125 16.4605 8.9803 16.4605C8.92934 16.4605 8.87957 16.4758 8.8375 16.5046Z" fill="#FFC639"/>
<path d="M8.98031 2.16509C5.2055 2.16509 2.14541 5.22519 2.14541 9C2.14541 12.7748 5.2055 15.8349 8.98031 15.8349C12.7551 15.8349 15.8152 12.7748 15.8152 9C15.8152 5.22519 12.7551 2.16509 8.98031 2.16509Z" fill="#FFE564"/>
<path d="M8.3361 2.04308L9.68485 1.12183C9.97047 0.926735 10.3628 1.03186 10.5126 1.34361L11.22 2.81583C11.2693 2.9183 11.3483 3.00353 11.4467 3.06037C11.5452 3.11721 11.6585 3.14302 11.7719 3.13442L13.4006 3.01095C13.7455 2.9848 14.0327 3.27198 14.0065 3.61689L13.883 5.24558C13.8744 5.35894 13.9002 5.47226 13.9571 5.57071C14.0139 5.66917 14.0992 5.74818 14.2016 5.79742L15.6738 6.50486C15.9856 6.65467 16.0907 7.04698 15.8956 7.33261L14.9744 8.68136C14.9103 8.77524 14.876 8.88627 14.876 8.99995C14.876 9.11363 14.9103 9.22467 14.9744 9.31855L15.8956 10.6673C16.0907 10.953 15.9856 11.3453 15.6738 11.4951L14.2016 12.2025C14.0992 12.2518 14.0139 12.3308 13.9571 12.4292C13.9002 12.5277 13.8744 12.641 13.883 12.7544L14.0065 14.383C14.0327 14.728 13.7455 15.0151 13.4006 14.989L11.7719 14.8655C11.6585 14.8569 11.5452 14.8827 11.4467 14.9396C11.3483 14.9964 11.2693 15.0816 11.22 15.1841L10.5126 16.6563C10.3628 16.9681 9.97047 17.0732 9.68485 16.8781L8.3361 15.9569C8.24222 15.8927 8.13118 15.8584 8.0175 15.8584C7.90382 15.8584 7.79279 15.8927 7.69891 15.9569L6.35013 16.8781C6.0645 17.0732 5.67219 16.9681 5.52238 16.6563L4.81494 15.1841C4.7657 15.0816 4.68669 14.9964 4.58823 14.9396C4.48978 14.8827 4.37646 14.8569 4.2631 14.8655L2.63441 14.989C2.2895 15.0151 2.00231 14.728 2.02847 14.383L2.15194 12.7544C2.16053 12.641 2.13472 12.5277 2.07788 12.4292C2.02104 12.3308 1.93581 12.2518 1.83335 12.2025L0.361127 11.4951C0.0493458 11.3453 -0.0557479 10.953 0.139346 10.6673L1.0606 9.31855C1.12471 9.22467 1.15901 9.11363 1.15901 8.99995C1.15901 8.88627 1.12471 8.77524 1.0606 8.68136L0.139346 7.33261C-0.0557479 7.04698 0.0493771 6.65467 0.361127 6.50486L1.83335 5.79742C1.93582 5.74819 2.02105 5.66917 2.07789 5.57071C2.13473 5.47226 2.16054 5.35894 2.15194 5.24558L2.02847 3.61689C2.00231 3.27198 2.2895 2.9848 2.63441 3.01095L4.2631 3.13442C4.37646 3.14302 4.48977 3.11721 4.58823 3.06037C4.68668 3.00352 4.7657 2.9183 4.81494 2.81583L5.52238 1.34361C5.67219 1.03183 6.0645 0.926735 6.35013 1.12183L7.69891 2.04308C7.79279 2.10719 7.90382 2.14149 8.0175 2.14149C8.13118 2.14149 8.24222 2.10719 8.3361 2.04308Z" fill="#FFC639"/>
<path d="M8.0175 15.5229C11.62 15.5229 14.5404 12.6025 14.5404 8.99999C14.5404 5.3975 11.62 2.47711 8.0175 2.47711C4.41502 2.47711 1.49463 5.3975 1.49463 8.99999C1.49463 12.6025 4.41502 15.5229 8.0175 15.5229Z" fill="#FFE564"/>
<path d="M8.09472 11.1066H8.09409C7.71309 11.1064 7.36634 10.9171 7.16656 10.6001C7.12842 10.5396 7.11589 10.4664 7.13171 10.3966C7.14753 10.3269 7.19042 10.2662 7.25093 10.2281C7.31145 10.19 7.38464 10.1774 7.45439 10.1933C7.52415 10.2091 7.58477 10.252 7.6229 10.3125C7.72337 10.4719 7.89959 10.5671 8.09434 10.5672H8.09465C8.28965 10.5672 8.46628 10.4719 8.56712 10.3122C8.64665 10.1863 8.81331 10.1487 8.93918 10.2282C8.99965 10.2664 9.04247 10.3271 9.05822 10.3969C9.07398 10.4666 9.06137 10.5398 9.02318 10.6003C8.82293 10.9174 8.47587 11.1066 8.09472 11.1066ZM6.0534 6.64373C6.11121 6.6016 6.14991 6.53823 6.161 6.46757C6.17209 6.3969 6.15465 6.32473 6.11253 6.26692C5.84234 5.89613 5.43693 5.68338 5.00031 5.6832H4.99975C4.5629 5.6832 4.15709 5.89588 3.88637 6.26673C3.86548 6.29533 3.85044 6.32778 3.84209 6.3622C3.83374 6.39662 3.83225 6.43235 3.83771 6.46735C3.84317 6.50235 3.85548 6.53592 3.87392 6.56617C3.89236 6.59641 3.91657 6.62272 3.94518 6.6436C3.97379 6.66449 4.00623 6.67954 4.04065 6.68789C4.07508 6.69624 4.11081 6.69772 4.1458 6.69226C4.1808 6.6868 4.21438 6.6745 4.24462 6.65606C4.27486 6.63762 4.30118 6.6134 4.32206 6.58479C4.49009 6.3546 4.73709 6.2226 4.99981 6.2226H5.00012C5.2625 6.2227 5.50906 6.35467 5.67662 6.5846C5.70165 6.619 5.73447 6.64699 5.77239 6.66626C5.81032 6.68553 5.85227 6.69554 5.89481 6.69548C5.95183 6.69551 6.00738 6.67738 6.0534 6.64373ZM12.2466 6.64373C12.2752 6.62287 12.2994 6.59658 12.3179 6.56635C12.3364 6.53613 12.3487 6.50256 12.3542 6.46757C12.3597 6.43258 12.3582 6.39685 12.3499 6.36242C12.3416 6.32799 12.3265 6.29554 12.3057 6.26692C12.0355 5.89613 11.6301 5.68338 11.1935 5.6832H11.1929C10.7561 5.6832 10.3502 5.89588 10.0795 6.26673C10.0586 6.29533 10.0436 6.32778 10.0352 6.3622C10.0269 6.39662 10.0254 6.43235 10.0308 6.46735C10.0363 6.50235 10.0486 6.53592 10.067 6.56617C10.0855 6.59641 10.1097 6.62272 10.1383 6.6436C10.1669 6.66449 10.1994 6.67954 10.2338 6.68789C10.2682 6.69624 10.3039 6.69772 10.3389 6.69226C10.3739 6.6868 10.4075 6.6745 10.4377 6.65606C10.468 6.63762 10.4943 6.6134 10.5152 6.58479C10.6832 6.3546 10.9302 6.2226 11.1929 6.2226H11.1933C11.4557 6.22273 11.7022 6.35467 11.8698 6.5846C11.8948 6.619 11.9276 6.64698 11.9655 6.66626C12.0035 6.68553 12.0454 6.69554 12.0879 6.69548C12.145 6.69551 12.2005 6.67738 12.2466 6.64373Z" fill="#FFB636"/>
<path d="M5.62428 8.01713V8.89575H5.62297C5.62297 8.89707 5.62428 8.89819 5.62428 8.89819C5.62428 9.24325 5.34432 9.52319 4.99928 9.52319C4.65422 9.52319 4.37428 9.24322 4.37428 8.8975V8.89572H4.3716V8.0171H4.37913C4.40703 7.69703 4.67191 7.44519 4.99928 7.44519C5.32572 7.44519 5.59063 7.69703 5.61813 8.0171H5.62428V8.01713ZM11.8133 8.01713C11.7858 7.69707 11.5206 7.44522 11.1932 7.44522C10.8672 7.44522 10.6018 7.69707 10.5743 8.01713H10.5668V8.89575H10.5695V8.89753C10.5695 9.24325 10.8495 9.52322 11.1932 9.52322C11.5383 9.52322 11.8182 9.24325 11.8182 8.89822V8.01716H11.8133V8.01713ZM9.11407 12.9727C9.17081 12.9294 9.20805 12.8653 9.21762 12.7945C9.22718 12.7237 9.20828 12.6521 9.16508 12.5952C9.12187 12.5383 9.05788 12.5009 8.98713 12.4912C8.91638 12.4815 8.84466 12.5002 8.78769 12.5432C8.36675 12.863 7.82288 12.863 7.4021 12.5433C7.3739 12.5218 7.34175 12.5061 7.3075 12.4971C7.27324 12.4881 7.23755 12.4859 7.20245 12.4907C7.16736 12.4955 7.13355 12.5072 7.10296 12.525C7.07237 12.5429 7.04559 12.5666 7.02416 12.5948C7.00273 12.623 6.98706 12.6551 6.97805 12.6894C6.96904 12.7236 6.96687 12.7593 6.97166 12.7944C6.97644 12.8295 6.98809 12.8633 7.00594 12.8939C7.02379 12.9245 7.04749 12.9513 7.07569 12.9727C7.3805 13.2043 7.7376 13.3201 8.09485 13.3201C8.452 13.3201 8.80925 13.2043 9.11407 12.9727Z" fill="#2B3B47"/>
</svg>
