<svg width="18" height="18" viewBox="0 0 18 18" fill="none" xmlns="http://www.w3.org/2000/svg">
<path d="M8.99999 17.2078C13.4558 17.2078 17.068 13.5957 17.068 9.13984C17.068 4.68402 13.4558 1.07187 8.99999 1.07187C4.54418 1.07187 0.932022 4.68402 0.932022 9.13984C0.932022 13.5957 4.54418 17.2078 8.99999 17.2078Z" fill="#A5B0B5"/>
<path d="M5.94404 7.92414V9.01086H5.94243C5.94243 9.01247 5.94404 9.01388 5.94404 9.01388C5.94404 9.44068 5.59776 9.78693 5.17099 9.78693C4.7442 9.78693 4.39794 9.44064 4.39794 9.01304V9.01086H4.39464V7.92414H4.40395C4.43844 7.52828 4.7661 7.2168 5.17099 7.2168C5.57476 7.2168 5.90242 7.52828 5.93642 7.92414H5.94404ZM13.5991 7.92414C13.5651 7.52828 13.237 7.2168 12.8321 7.2168C12.4288 7.2168 12.1007 7.52828 12.0667 7.92414H12.0574V9.01086H12.0607V9.01304C12.0607 9.44068 12.407 9.78693 12.8321 9.78693C13.2589 9.78693 13.6052 9.44064 13.6052 9.01388V7.92414H13.5991ZM10.2605 14.0535C10.4072 13.9421 10.4357 13.7328 10.3242 13.5861C10.2128 13.4394 10.0035 13.4109 9.85679 13.5224C9.33624 13.9179 8.66349 13.9179 8.14296 13.5224C7.99636 13.4109 7.78704 13.4394 7.67552 13.5861C7.56404 13.7328 7.59259 13.942 7.73926 14.0535C8.11628 14.3401 8.55798 14.4833 8.99979 14.4833C9.4416 14.4833 9.88348 14.34 10.2605 14.0535Z" fill="#2B3B47"/>
<path d="M8.99965 11.7452H8.99891C8.52775 11.745 8.09895 11.5108 7.8519 11.1188C7.75375 10.9631 7.80047 10.7572 7.95618 10.6591C8.11195 10.561 8.31776 10.6077 8.41592 10.7634C8.54023 10.9606 8.7583 11.0785 8.99926 11.0786H8.99965C9.24096 11.0786 9.45946 10.9607 9.58426 10.7631C9.60763 10.7261 9.63806 10.694 9.67382 10.6688C9.70958 10.6435 9.74996 10.6256 9.79266 10.6159C9.83536 10.6063 9.87955 10.6052 9.92268 10.6126C9.96582 10.62 10.0071 10.6359 10.0441 10.6593C10.0811 10.6827 10.1131 10.7131 10.1384 10.7489C10.1636 10.7846 10.1816 10.825 10.1912 10.8677C10.2008 10.9104 10.202 10.9546 10.1945 10.9977C10.1871 11.0409 10.1712 11.0821 10.1479 11.1191C9.90018 11.5112 9.47095 11.7452 8.99965 11.7452ZM6.47466 6.22522C6.62344 6.1168 6.65617 5.90829 6.54775 5.75951C6.21359 5.301 5.71226 5.03786 5.17229 5.03764H5.17159C4.63134 5.03764 4.12949 5.30065 3.79466 5.7593C3.68613 5.90797 3.71865 6.11652 3.86733 6.22505C4.01604 6.33354 4.22452 6.30105 4.33308 6.15238C4.54099 5.86758 4.84654 5.70431 5.17156 5.70431H5.17198C5.49658 5.70445 5.80163 5.86768 6.00894 6.15217C6.03987 6.19468 6.08043 6.22927 6.1273 6.25309C6.17417 6.27691 6.22602 6.28928 6.27859 6.28921C6.34908 6.28921 6.41774 6.26681 6.47466 6.22522ZM11.9933 6.15234C12.2012 5.86754 12.5067 5.70428 12.8318 5.70428H12.8322C13.1567 5.70442 13.4618 5.86765 13.6691 6.15213C13.7775 6.30091 13.9861 6.33364 14.1348 6.22522C14.2836 6.1168 14.3163 5.90829 14.2079 5.75951C13.8737 5.30096 13.3724 5.03786 12.8325 5.03764H12.8317C12.2915 5.03764 11.7896 5.30065 11.4548 5.7593C11.3463 5.90797 11.3788 6.11652 11.5275 6.22505C11.5845 6.26675 11.6532 6.28921 11.7238 6.28917C11.7763 6.28924 11.8281 6.27688 11.8749 6.2531C11.9218 6.22932 11.9623 6.19479 11.9933 6.15234ZM3.29031 3.43983C3.75768 3.79413 4.42716 4.01629 5.17113 4.01629C6.58371 4.01629 7.72886 3.21606 7.72886 2.22894C7.72886 1.86729 7.57466 1.53098 7.31043 1.24966C5.75828 1.58041 4.37122 2.35709 3.29031 3.43983ZM1.83691 9.04352C1.52808 9.04331 1.22178 9.09918 0.932907 9.20841C0.948095 11.0273 1.56502 12.7024 2.5945 14.0448C3.6372 13.7219 4.39464 12.75 4.39464 11.6012C4.39464 10.1887 3.24949 9.04352 1.83691 9.04352ZM16.1029 9.46863C16.1029 10.0247 16.4363 10.5025 16.914 10.7141C17.0165 10.1956 17.0681 9.66836 17.0679 9.13985C17.0679 8.81652 17.0484 8.49779 17.0114 8.18441C16.4822 8.3712 16.1029 8.87551 16.1029 9.46863ZM13.6052 10.8767C12.8531 10.8767 12.2433 11.373 12.2433 11.9853C12.2433 12.5976 12.8531 13.094 13.6052 13.094C14.3573 13.094 14.967 12.5976 14.967 11.9853C14.967 11.373 14.3573 10.8767 13.6052 10.8767ZM10.3622 2.2699C10.3622 3.022 10.9719 3.63171 11.724 3.63171C12.4761 3.63171 13.0858 3.022 13.0858 2.2699C13.0858 2.23973 13.0845 2.20989 13.0826 2.18022C12.3718 1.76203 11.6008 1.45601 10.7967 1.27297C10.5295 1.5216 10.3622 1.87615 10.3622 2.2699ZM7.46891 17.0621C7.9735 17.1591 8.48617 17.2078 9 17.2078C10.2224 17.2078 11.3811 16.9354 12.4193 16.4488C11.9748 15.5983 11.0848 15.0174 10.0586 15.0174C8.80095 15.0174 7.74767 15.8897 7.46891 17.0621Z" fill="#8F9B9E"/>
</svg>
