<svg width="32" height="32" viewBox="0 0 32 32" fill="none" xmlns="http://www.w3.org/2000/svg">
<g filter="url(#filter0_d)">
<path d="M6.34901 10.5244C6.25154 10.1607 6.25152 9.77774 6.34897 9.41405C6.44642 9.05035 6.63789 8.71871 6.90415 8.45248L12.4523 2.90431C12.7185 2.63805 13.0501 2.44657 13.4138 2.34912C13.7775 2.25167 14.1604 2.25169 14.5241 2.34916L19.7158 3.74028C19.7698 3.02903 20.0174 2.34612 20.4318 1.76551L14.1789 0.0901852C13.73 -0.0300643 13.2575 -0.0300618 12.8087 0.0901932C12.3598 0.210449 11.9506 0.44672 11.622 0.775262L4.77525 7.62211C4.44671 7.95069 4.21045 8.35994 4.09019 8.80877C3.96994 9.25758 3.96994 9.73016 4.09018 10.179L5.82994 16.6718C6.39866 16.2375 7.07578 15.9677 7.78737 15.8921L6.34901 10.5244Z" fill="#969696"/>
<path d="M24.1645 7.92847L25.6509 13.4756C25.7485 13.8394 25.7483 14.2223 25.6509 14.5859C25.5534 14.9497 25.3619 15.2813 25.0957 15.5475L19.5476 21.0958C19.2813 21.362 18.9497 21.5534 18.586 21.6509C18.2223 21.7483 17.8393 21.7483 17.4757 21.6509L12.108 20.2126C12.0324 20.9242 11.7627 21.6013 11.3283 22.17L17.8211 23.9098C18.2699 24.0301 18.7425 24.0301 19.1912 23.9098C19.6401 23.7895 20.0493 23.5533 20.3779 23.2247L27.2247 16.3779C27.5533 16.0493 27.7895 15.6401 27.9098 15.1912C28.0301 14.7424 28.0301 14.2698 27.9098 13.821L26.1044 7.08508C25.5477 7.53947 24.8764 7.83132 24.1645 7.92847Z" fill="#969696"/>
<path d="M5.98604 17.5672C5.54632 18.0069 5.24686 18.5673 5.12554 19.1771C5.00422 19.787 5.06649 20.4193 5.30446 20.9938C5.54242 21.5682 5.94542 22.0593 6.46246 22.4048C6.97952 22.7502 7.5874 22.9347 8.20926 22.9347C8.8311 22.9347 9.43899 22.7502 9.95604 22.4048C10.4731 22.0593 10.8761 21.5682 11.1141 20.9938C11.352 20.4193 11.4143 19.787 11.293 19.1771C11.1716 18.5673 10.8722 18.0069 10.4325 17.5672C9.84238 16.9785 9.04283 16.6478 8.20926 16.6478C7.37568 16.6478 6.57613 16.9785 5.98604 17.5672Z" fill="#6C63FE"/>
<path d="M21.4045 1.82397C20.9648 2.26369 20.6653 2.82392 20.5441 3.43384C20.4227 4.04374 20.485 4.67593 20.7229 5.25046C20.9609 5.82497 21.3639 6.31604 21.8809 6.66152C22.398 7.00701 23.0059 7.19141 23.6277 7.19141C24.2496 7.19141 24.8574 7.00701 25.3746 6.66152C25.8916 6.31604 26.2945 5.82497 26.5325 5.25046C26.7705 4.67593 26.8327 4.04374 26.7114 3.43384C26.5902 2.82392 26.2906 2.26369 25.8509 1.82397C25.2609 1.2352 24.4613 0.904541 23.6277 0.904541C22.7942 0.904541 21.9945 1.2352 21.4045 1.82397Z" fill="#6C63FE"/>
<path d="M17.8454 20.3345C17.7192 20.3345 17.5935 20.318 17.4715 20.2853L12.5581 18.9687C12.3943 18.0938 11.9698 17.2888 11.3404 16.6594C10.711 16.0301 9.9061 15.6055 9.03122 15.4417L7.71472 10.5286C7.64945 10.2836 7.64964 10.0257 7.71528 9.78072C7.78092 9.53575 7.90971 9.31231 8.08876 9.13271L13.1319 4.08942C13.3113 3.91002 13.5347 3.78101 13.7798 3.71534C14.0248 3.64968 14.2829 3.6497 14.5279 3.71538L19.3036 4.99505C19.493 5.86453 19.9406 6.65652 20.5878 7.26729C21.235 7.87805 22.0515 8.27913 22.9305 8.41795L24.2845 13.4723C24.3497 13.7175 24.3496 13.9754 24.2838 14.2203C24.2182 14.4653 24.0894 14.6887 23.9103 14.8684L18.8672 19.9115C18.7334 20.046 18.574 20.1528 18.3986 20.2253C18.2233 20.2979 18.0353 20.335 17.8454 20.3345Z" fill="#6C63FE"/>
</g>
<defs>
<filter id="filter0_d" x="0" y="0" width="32" height="32" filterUnits="userSpaceOnUse" color-interpolation-filters="sRGB">
<feFlood flood-opacity="0" result="BackgroundImageFix"/>
<feColorMatrix in="SourceAlpha" type="matrix" values="0 0 0 0 0 0 0 0 0 0 0 0 0 0 0 0 0 0 127 0"/>
<feOffset dy="4"/>
<feGaussianBlur stdDeviation="2"/>
<feColorMatrix type="matrix" values="0 0 0 0 0 0 0 0 0 0 0 0 0 0 0 0 0 0 0.25 0"/>
<feBlend mode="normal" in2="BackgroundImageFix" result="effect1_dropShadow"/>
<feBlend mode="normal" in="SourceGraphic" in2="effect1_dropShadow" result="shape"/>
</filter>
</defs>
</svg>
