<svg width="48" height="48" viewBox="0 0 48 48" fill="none" xmlns="http://www.w3.org/2000/svg">
<path d="M37.42 39C35.76 41.48 34 43.9 31.32 43.94C28.64 44 27.78 42.36 24.74 42.36C21.68 42.36 20.74 43.9 18.2 44C15.58 44.1 13.6 41.36 11.92 38.94C8.5 34 5.88 24.9 9.4 18.78C11.14 15.74 14.26 13.82 17.64 13.76C20.2 13.72 22.64 15.5 24.22 15.5C25.78 15.5 28.74 13.36 31.84 13.68C33.14 13.74 36.78 14.2 39.12 17.64C38.94 17.76 34.78 20.2 34.82 25.26C34.88 31.3 40.12 33.32 40.18 33.34C40.12 33.48 39.34 36.22 37.42 39ZM26 7C27.46 5.34 29.88 4.08 31.88 4C32.14 6.34 31.2 8.7 29.8 10.38C28.42 12.08 26.14 13.4 23.9 13.22C23.6 10.92 24.72 8.52 26 7Z" fill="black"/>
</svg>
