<svg width="20" height="22" viewBox="0 0 20 22" fill="none" xmlns="http://www.w3.org/2000/svg">
<path d="M14.66 16.501H4.57103V9.46002C4.57103 6.75102 6.81301 4.58502 9.61601 4.58502C12.418 4.58502 14.66 6.75102 14.66 9.46002V16.501ZM16.902 15.418V9.46002C16.902 6.13402 14.503 3.34998 11.297 2.61298V1.87598C11.297 1.44498 11.12 1.03199 10.805 0.72699C10.49 0.42299 10.062 0.250977 9.61601 0.250977C9.17001 0.250977 8.74202 0.42299 8.42702 0.72699C8.11202 1.03199 7.93401 1.44498 7.93401 1.87598V2.61298C4.71701 3.34998 2.33002 6.13402 2.33002 9.46002V15.418L0.0880127 17.585V18.668H19.144V17.585L16.902 15.418ZM9.61601 21.918C10.211 21.918 10.781 21.69 11.201 21.283C11.622 20.877 11.858 20.326 11.858 19.751H7.37401C7.37401 20.326 7.61002 20.877 8.03102 21.283C8.45102 21.69 9.02101 21.918 9.61601 21.918Z" fill="#969696"/>
</svg>
