<svg class="week6svg" width="25" height="25" viewBox="0 0 25 25" fill="none" xmlns="http://www.w3.org/2000/svg">
<path d="M5.6756 11.7536L7.1756 7.25356H18.1756L19.6756 11.7536H5.6756ZM18.1756 16.7536C17.7778 16.7536 17.3962 16.5955 17.1149 16.3142C16.8336 16.0329 16.6756 15.6514 16.6756 15.2536C16.6756 14.8557 16.8336 14.4742 17.1149 14.1929C17.3962 13.9116 17.7778 13.7536 18.1756 13.7536C18.5734 13.7536 18.955 13.9116 19.2363 14.1929C19.5176 14.4742 19.6756 14.8557 19.6756 15.2536C19.6756 15.6514 19.5176 16.0329 19.2363 16.3142C18.955 16.5955 18.5734 16.7536 18.1756 16.7536ZM7.1756 16.7536C6.77777 16.7536 6.39624 16.5955 6.11494 16.3142C5.83363 16.0329 5.6756 15.6514 5.6756 15.2536C5.6756 14.8557 5.83363 14.4742 6.11494 14.1929C6.39624 13.9116 6.77777 13.7536 7.1756 13.7536C7.57342 13.7536 7.95495 13.9116 8.23626 14.1929C8.51756 14.4742 8.6756 14.8557 8.6756 15.2536C8.6756 15.6514 8.51756 16.0329 8.23626 16.3142C7.95495 16.5955 7.57342 16.7536 7.1756 16.7536ZM19.5956 6.75356C19.3956 6.17356 18.8356 5.75356 18.1756 5.75356H7.1756C6.5156 5.75356 5.9556 6.17356 5.7556 6.75356L3.6756 12.7536V20.7536C3.6756 21.0188 3.78095 21.2731 3.96849 21.4607C4.15603 21.6482 4.41038 21.7536 4.6756 21.7536H5.6756C5.94081 21.7536 6.19517 21.6482 6.3827 21.4607C6.57024 21.2731 6.6756 21.0188 6.6756 20.7536V19.7536H18.6756V20.7536C18.6756 21.0188 18.781 21.2731 18.9685 21.4607C19.156 21.6482 19.4104 21.7536 19.6756 21.7536H20.6756C20.9408 21.7536 21.1952 21.6482 21.3827 21.4607C21.5702 21.2731 21.6756 21.0188 21.6756 20.7536V12.7536L19.5956 6.75356Z" fill="currentColor"/>
</svg>
