<svg width="26" height="24" viewBox="0 0 26 24" fill="none" xmlns="http://www.w3.org/2000/svg">
<path d="M12.823 24.001C12.526 24.001 12.241 23.887 12.031 23.684C11.821 23.481 11.703 23.205 11.703 22.918V19.668H7.219C6.624 19.668 6.054 19.44 5.633 19.034C5.213 18.627 4.977 18.076 4.977 17.501V6.66803C4.977 6.09303 5.213 5.54199 5.633 5.13599C6.054 4.72999 6.624 4.50098 7.219 4.50098H22.912C23.507 4.50098 24.077 4.72999 24.498 5.13599C24.918 5.54199 25.154 6.09303 25.154 6.66803V17.501C25.154 18.076 24.918 18.627 24.498 19.034C24.077 19.44 23.507 19.668 22.912 19.668H18.316L14.169 23.687C13.944 23.882 13.675 24.001 13.384 24.001H12.823ZM13.944 17.501V20.838L17.397 17.501H22.912V6.66803H7.219V17.501H13.944ZM2.7346 15.335H0.492599V2.33502C0.492599 1.76002 0.7288 1.20898 1.1493 0.802979C1.5697 0.395979 2.14 0.16803 2.7346 0.16803H20.67V2.33502H2.7346V15.335ZM9.461 8.83502H20.67V11.001H9.461V8.83502ZM9.461 13.168H18.428V15.335H9.461V13.168Z" fill="#969696"/>
</svg>
