<svg width="48" height="48" viewBox="0 0 48 48" fill="none" xmlns="http://www.w3.org/2000/svg">
<path d="M23.655 4.07999C12.8447 4.07999 4 12.7354 4 23.3957C4 33.0342 11.1937 41.0342 20.5888 42.48V28.986H15.5964V23.3957H20.5888V19.1354C20.5888 14.2969 23.5174 11.6366 28.0184 11.6366C30.1608 11.6366 32.4014 12.0029 32.4014 12.0029V16.7643H29.9249C27.4877 16.7643 26.7212 18.2487 26.7212 19.7716V23.3957H32.1852L31.3008 28.986H26.7212V42.48C31.3527 41.7626 35.5702 39.4448 38.6123 35.9452C41.6543 32.4455 43.3205 27.9945 43.31 23.3957C43.31 12.7354 34.4652 4.07999 23.655 4.07999Z" fill="black"/>
</svg>
