<svg width="100" height="100" xmlns="http://www.w3.org/2000/svg">
 <title/>

 <g>
  <title>background</title>
  <rect fill="none" id="canvas_background" height="402" width="582" y="-1" x="-1"/>
 </g>
 <g>
  <title>Layer 1</title>
  <path fill="#333333" id="svg_1" d="m50,11a39,39 0 1 0 39,39a39.05,39.05 0 0 0 -39,-39zm12,42l-16.76,0l3.88,3.88a3,3 0 0 1 0,4.24a3,3 0 0 1 -4.24,0l-9,-9a3.44,3.44 0 0 1 -0.38,-0.46l-0.12,-0.22c-0.05,-0.1 -0.11,-0.19 -0.15,-0.29s-0.06,-0.2 -0.09,-0.3a2.58,2.58 0 0 1 -0.08,-0.26a2.93,2.93 0 0 1 0,-1.18a2.58,2.58 0 0 1 0.08,-0.26c0,-0.1 0,-0.2 0.09,-0.3s0.1,-0.19 0.15,-0.29l0.12,-0.22a3.44,3.44 0 0 1 0.38,-0.46l9,-9a3,3 0 0 1 4.24,4.24l-3.88,3.88l16.76,0a3,3 0 0 1 0,6z"/>
 </g>
</svg>