<svg width="24" height="24" viewBox="0 0 24 24" fill="none" xmlns="http://www.w3.org/2000/svg">
<path d="M2.34901 10.5244C2.25154 10.1607 2.25152 9.77774 2.34897 9.41405C2.44642 9.05035 2.63789 8.71871 2.90415 8.45248L8.45226 2.90431C8.71849 2.63805 9.05013 2.44657 9.41382 2.34912C9.77751 2.25167 10.1604 2.25169 10.5241 2.34916L15.7158 3.74028C15.7698 3.02903 16.0174 2.34612 16.4318 1.76551L10.1789 0.0901852C9.73004 -0.0300643 9.25748 -0.0300618 8.80867 0.0901932C8.35985 0.210449 7.95059 0.44672 7.62203 0.775262L0.775251 7.62211C0.446713 7.95069 0.210445 8.35994 0.0901922 8.80877C-0.0300614 9.25758 -0.030064 9.73016 0.0901843 10.179L1.82994 16.6718C2.39866 16.2375 3.07578 15.9677 3.78737 15.8921L2.34901 10.5244Z" fill="#18CDCA"/>
<path d="M20.1646 7.92847L21.651 13.4756C21.7485 13.8394 21.7483 14.2223 21.651 14.5859C21.5534 14.9497 21.3619 15.2813 21.0957 15.5475L15.5476 21.0958C15.2813 21.362 14.9497 21.5534 14.586 21.6509C14.2224 21.7483 13.8393 21.7483 13.4757 21.6509L8.10803 20.2126C8.0324 20.9242 7.76269 21.6013 7.32832 22.17L13.8211 23.9098C14.2699 24.0301 14.7425 24.0301 15.1912 23.9098C15.6401 23.7895 16.0493 23.5533 16.3779 23.2247L23.2247 16.3779C23.5533 16.0493 23.7895 15.6401 23.9098 15.1912C24.0301 14.7424 24.0301 14.2698 23.9098 13.821L22.1044 7.08508C21.5477 7.53947 20.8764 7.83132 20.1646 7.92847Z" fill="#18CDCA"/>
<path d="M1.98604 17.5672C1.54632 18.0069 1.24686 18.5673 1.12554 19.1771C1.00422 19.787 1.06649 20.4193 1.30446 20.9938C1.54242 21.5682 1.94542 22.0593 2.46246 22.4048C2.97952 22.7502 3.5874 22.9347 4.20926 22.9347C4.8311 22.9347 5.43899 22.7502 5.95604 22.4048C6.47309 22.0593 6.87609 21.5682 7.11405 20.9938C7.35203 20.4193 7.41429 19.787 7.29296 19.1771C7.17165 18.5673 6.8722 18.0069 6.43247 17.5672C5.84238 16.9785 5.04283 16.6478 4.20926 16.6478C3.37568 16.6478 2.57613 16.9785 1.98604 17.5672Z" fill="#4F80E1"/>
<path d="M17.4045 1.82397C16.9648 2.26369 16.6653 2.82392 16.5441 3.43384C16.4227 4.04374 16.485 4.67593 16.7229 5.25046C16.9609 5.82497 17.3639 6.31604 17.8809 6.66152C18.398 7.00701 19.0059 7.19141 19.6276 7.19141C20.2496 7.19141 20.8574 7.00701 21.3746 6.66152C21.8915 6.31604 22.2945 5.82497 22.5325 5.25046C22.7705 4.67593 22.8327 4.04374 22.7114 3.43384C22.5902 2.82392 22.2906 2.26369 21.8509 1.82397C21.2609 1.2352 20.4613 0.904541 19.6276 0.904541C18.7942 0.904541 17.9945 1.2352 17.4045 1.82397Z" fill="#4F80E1"/>
<path d="M13.8454 20.3345C13.7192 20.3345 13.5935 20.318 13.4715 20.2853L8.55811 18.9687C8.39427 18.0938 7.96982 17.2888 7.34044 16.6594C6.71104 16.0301 5.9061 15.6055 5.03122 15.4417L3.71472 10.5286C3.64945 10.2836 3.64964 10.0257 3.71528 9.78072C3.78092 9.53575 3.90971 9.31231 4.08876 9.13271L9.13186 4.08942C9.31125 3.91002 9.5347 3.78101 9.77976 3.71534C10.0248 3.64968 10.2829 3.6497 10.5279 3.71538L15.3036 4.99505C15.493 5.86453 15.9406 6.65652 16.5878 7.26729C17.235 7.87805 18.0515 8.27913 18.9305 8.41795L20.2845 13.4723C20.3497 13.7175 20.3496 13.9754 20.2838 14.2203C20.2182 14.4653 20.0894 14.6887 19.9103 14.8684L14.8672 19.9115C14.7334 20.046 14.574 20.1528 14.3986 20.2253C14.2233 20.2979 14.0353 20.335 13.8454 20.3345Z" fill="#4F80E1"/>
</svg>
