<svg width="27" height="29" viewBox="0 0 27 29" fill="none" xmlns="http://www.w3.org/2000/svg">
<path d="M14 6C9 6 4.73 9.11 3 13.5C4.73 17.89 9 21 14 21C19 21 23.27 17.89 25 13.5C23.27 9.11 19 6 14 6ZM14 18.5C11.24 18.5 9 16.26 9 13.5C9 10.74 11.24 8.5 14 8.5C16.76 8.5 19 10.74 19 13.5C19 16.26 16.76 18.5 14 18.5ZM14 10.5C12.34 10.5 11 11.84 11 13.5C11 15.16 12.34 16.5 14 16.5C15.66 16.5 17 15.16 17 13.5C17 11.84 15.66 10.5 14 10.5Z" fill="#A5A5A5"/>
<line x1="24.7474" y1="0.664364" x2="0.747409" y2="27.6644" stroke="#A5A5A5" stroke-width="2"/>
</svg>
