<svg width="19" height="18" viewBox="0 0 19 18" fill="none" xmlns="http://www.w3.org/2000/svg">
<path d="M9.47101 2.47601C10.771 2.47601 11.825 3.49498 11.825 4.75098C11.825 6.00798 10.771 7.026 9.47101 7.026C8.17001 7.026 7.117 6.00798 7.117 4.75098C7.117 3.49498 8.17001 2.47601 9.47101 2.47601ZM9.47101 12.226C12.8 12.226 16.309 13.808 16.309 14.501V15.693H2.633V14.501C2.633 13.808 6.14101 12.226 9.47101 12.226ZM9.47101 0.41803C6.99301 0.41803 4.987 2.35698 4.987 4.75098C4.987 7.14598 6.99301 9.08502 9.47101 9.08502C11.948 9.08502 13.955 7.14598 13.955 4.75098C13.955 2.35698 11.948 0.41803 9.47101 0.41803ZM9.47101 10.168C6.47801 10.168 0.502991 11.62 0.502991 14.501V17.751H18.439V14.501C18.439 11.62 12.464 10.168 9.47101 10.168Z" fill="#32BAF3"/>
</svg>
