<svg width="100" height="100" xmlns="http://www.w3.org/2000/svg">
 <title/>

 <g>
  <title>background</title>
  <rect fill="none" id="canvas_background" height="402" width="582" y="-1" x="-1"/>
 </g>
 <g>
  <title>Layer 1</title>
  <path fill="#ffffff" id="svg_2" d="m86,25l-9.6,0l-5.3,-8c-2,-3 -5.5,-4.8 -9.1,-4.8l-22,0c-3.6,0 -7.1,1.8 -9.1,4.8l-5.3,8l-9.6,0c-6.1,0 -11,4.9 -11,11l0,38.8c0,6.1 4.9,11 11,11l70,0c6.1,0 11,-4.9 11,-11l0,-38.8c0,-6.1 -4.9,-11 -11,-11zm-35,51.8c-13.7,0 -24.8,-11.1 -24.8,-24.8s11.1,-24.7 24.8,-24.7s24.8,11.1 24.8,24.8c0,13.6 -11.1,24.7 -24.8,24.7zm33.6,-36.3c-0.1,0 -0.2,0 -0.4,0l-4,0c-1.8,-0.1 -3.2,-1.6 -3.1,-3.4c0.1,-1.7 1.4,-3 3.1,-3.1l4,0c1.8,-0.1 3.3,1.3 3.4,3.1s-1.2,3.3 -3,3.4z"/>
  <path fill="#ffffff" id="svg_3" d="m51,38.3c-7.6,0 -13.8,6.2 -13.8,13.8s6.2,13.7 13.8,13.7s13.8,-6.2 13.8,-13.8c0,-7.6 -6.2,-13.7 -13.8,-13.7z"/>
 </g>
</svg>