<svg width="24" height="24" xmlns="http://www.w3.org/2000/svg">
 <title/>

 <g>
  <title>background</title>
  <rect fill="none" id="canvas_background" height="402" width="582" y="-1" x="-1"/>
 </g>
 <g>
  <title>Layer 1</title>
  <path fill="#ffffff" id="svg_1" d="m7,10l1,0l0,11a1,1 0 0 0 1,1l6,0a1,1 0 0 0 1,-1l0,-11l1,0a1,1 0 0 0 1,-1l0,-6a1,1 0 0 0 -1,-1l-10,0a1,1 0 0 0 -1,1l0,6a1,1 0 0 0 1,1zm7,10l-4,0l0,-10l4,0l0,10zm-6,-6l8,0l0,-6l-8,0l0,6z"/>
  <rect fill="#ffffff" id="svg_2" y="12" x="11" width="2" height="2"/>
 </g>
</svg>