<svg width="375" height="20" viewBox="0 0 375 20" fill="none" xmlns="http://www.w3.org/2000/svg">
<g clip-path="url(#clip0)">
<path fill-rule="evenodd" clip-rule="evenodd" d="M0 0V20H375V0H0Z" fill="black" fill-opacity="0.01"/>
<path fill-rule="evenodd" clip-rule="evenodd" d="M365.998 5.5H346.502C345.673 5.5 345 6.16802 345 7.00006V13.4999C345 14.3284 345.673 15 346.502 15H365.998C366.827 15 367.5 14.332 367.5 13.4999V7.00006C367.5 6.1716 366.827 5.5 365.998 5.5ZM345.5 7.00006C345.5 6.44576 345.947 6 346.502 6H365.998C366.551 6 367 6.4482 367 7.00006V13.4999C367 14.0542 366.553 14.5 365.998 14.5H346.502C345.949 14.5 345.5 14.0518 345.5 13.4999V7.00006Z" fill="black"/>
<path fill-rule="evenodd" clip-rule="evenodd" d="M346.5 6.5C346.224 6.5 346 6.72386 346 7V13.5C346 13.7761 346.224 14 346.5 14H355V6.5H346.5Z" fill="black"/>
<path fill-rule="evenodd" clip-rule="evenodd" d="M369.5 10.25C369.5 11.1406 368.848 11.8775 368 12V8.5C368.848 8.62255 369.5 9.35936 369.5 10.25Z" fill="black"/>
<path opacity="0.4" fill-rule="evenodd" clip-rule="evenodd" d="M313.69 14.8516V11.2991L315.503 13.1606L313.69 14.8516ZM315.586 7.84041L313.69 9.63882V6.23165L315.586 7.84041ZM314.145 10.5005L316.959 7.84041L312.761 4H312.661V9.34133L309.811 6.52481L309 7.32389L312.429 10.5005L309 13.6766L309.811 14.4757L312.661 11.6591V17H312.843L317 13.15L314.145 10.5005Z" fill="black"/>
<path d="M256.756 15.2051C258.871 15.2051 260.107 13.5234 260.107 10.6582C260.107 9.63281 259.932 8.76562 259.586 8.08594C259.041 6.94922 258.057 6.33984 256.809 6.33984C255.016 6.33984 253.744 7.56445 253.744 9.29297C253.744 10.9219 254.916 12.1113 256.527 12.1113C257.529 12.1113 258.338 11.6426 258.742 10.8281H258.766C258.766 10.8281 258.789 10.8281 258.795 10.8281C258.801 10.8281 258.842 10.8281 258.842 10.8281C258.818 12.8672 258.062 14.0391 256.768 14.0391C255.994 14.0391 255.396 13.6172 255.191 12.9258H253.867C254.125 14.3086 255.256 15.2051 256.756 15.2051ZM256.814 10.998C255.777 10.998 255.051 10.2715 255.051 9.24609C255.051 8.25586 255.818 7.49414 256.826 7.49414C257.828 7.49414 258.596 8.26172 258.596 9.27539C258.596 10.2715 257.846 10.998 256.814 10.998ZM261.859 13.2305C261.859 13.7754 262.229 14.1562 262.779 14.1562C263.324 14.1562 263.688 13.7754 263.688 13.2305C263.688 12.6855 263.324 12.3047 262.779 12.3047C262.229 12.3047 261.859 12.6855 261.859 13.2305ZM261.859 8.76562C261.859 9.31055 262.229 9.69141 262.779 9.69141C263.324 9.69141 263.688 9.31055 263.688 8.76562C263.688 8.2207 263.324 7.83984 262.779 7.83984C262.229 7.83984 261.859 8.2207 261.859 8.76562ZM269.523 15H270.789V13.3652H271.955V12.1934H270.789V6.54492H268.92C267.414 8.80078 266.154 10.7637 265.398 12.1465V13.3652H269.523V15ZM266.658 12.1406C267.654 10.4121 268.627 8.91211 269.465 7.69922H269.541V12.2227H266.658V12.1406ZM275.453 15H276.766V6.54492H275.459L273.232 8.11523V9.45703L275.354 7.95703H275.453V15ZM288.127 15H289.521L286.469 6.54492H285.057L282.004 15H283.352L284.131 12.7559H287.354L288.127 15ZM285.695 8.08008H285.795L287.02 11.6543H284.465L285.695 8.08008ZM292.217 15V8.89453H292.299L294.777 14.7539H295.773L298.252 8.89453H298.334V15H299.553V6.54492H298.018L295.322 12.9668H295.223L292.533 6.54492H290.998V15H292.217Z" fill="black"/>
<path fill-rule="evenodd" clip-rule="evenodd" d="M330.996 7.52088C332.936 7.52088 334.703 8.23545 336.059 9.40718L337 8.36811C335.395 6.97447 333.298 6 330.996 6C328.697 6 326.603 6.97151 325 8.36071L325.939 9.40126C327.294 8.23299 329.058 7.52088 330.996 7.52088ZM330.996 10.5202C332.158 10.5202 333.22 10.9424 334.04 11.6377L335.035 10.538C333.952 9.60789 332.542 9.00033 330.996 9.00033C329.452 9.00033 328.044 9.60641 326.961 10.5335L327.955 11.6347C328.774 10.9409 329.835 10.5202 330.996 10.5202ZM333.043 12.7374C332.489 12.2773 331.775 11.9587 330.995 11.9587C330.217 11.9587 329.504 12.2768 328.95 12.735L330.995 15L333.043 12.7374Z" fill="black"/>
<path d="M52.1738 10.7305V9.69922H48.7461V10.625H51.125V10.8301C51.125 12.2598 50.0996 13.2266 48.5879 13.2266C46.8887 13.2266 45.834 11.9023 45.834 9.76953C45.834 7.66602 46.9062 6.31836 48.582 6.31836C49.8359 6.31836 50.6855 6.92188 51.0488 8.06445H52.1211C51.8164 6.38867 50.457 5.3457 48.582 5.3457C46.2676 5.3457 44.75 7.09766 44.75 9.76953C44.75 12.4766 46.2441 14.1992 48.582 14.1992C50.7441 14.1992 52.1738 12.8164 52.1738 10.7305ZM53.6387 11.791C53.75 13.25 54.9863 14.1992 56.7793 14.1992C58.7129 14.1992 59.9375 13.209 59.9375 11.6562C59.9375 10.4141 59.2344 9.73438 57.4824 9.29492L56.5977 9.06055C55.4316 8.76172 54.9688 8.38086 54.9688 7.71875C54.9688 6.86328 55.7129 6.30078 56.8379 6.30078C57.8926 6.30078 58.6074 6.81641 58.7539 7.68359H59.8145C59.7266 6.31836 58.5078 5.3457 56.873 5.3457C55.0859 5.3457 53.8848 6.31836 53.8848 7.75391C53.8848 8.95508 54.5469 9.64648 56.0762 10.0332L57.1602 10.3145C58.3262 10.6074 58.8535 11.0645 58.8535 11.7852C58.8535 12.623 58.0156 13.2383 56.8789 13.2383C55.6777 13.2383 54.834 12.6758 54.7051 11.791H53.6387Z" fill="black"/>
<path fill-rule="evenodd" clip-rule="evenodd" d="M35 10.75C35 12.2688 36.2312 13.5 37.75 13.5C39.2688 13.5 40.5 12.2688 40.5 10.75C40.5 9.23122 39.2688 8 37.75 8C36.2312 8 35 9.23122 35 10.75ZM40 10.75C40 11.9926 38.9926 13 37.75 13C36.5074 13 35.5 11.9926 35.5 10.75C35.5 9.50736 36.5074 8.5 37.75 8.5C38.9926 8.5 40 9.50736 40 10.75Z" fill="black"/>
<path fill-rule="evenodd" clip-rule="evenodd" d="M28 10.75C28 12.2688 29.2312 13.5 30.75 13.5C32.2688 13.5 33.5 12.2688 33.5 10.75C33.5 9.23122 32.2688 8 30.75 8C29.2312 8 28 9.23122 28 10.75ZM33 10.75C33 11.9926 31.9926 13 30.75 13C29.5074 13 28.5 11.9926 28.5 10.75C28.5 9.50736 29.5074 8.5 30.75 8.5C31.9926 8.5 33 9.50736 33 10.75Z" fill="black"/>
<path fill-rule="evenodd" clip-rule="evenodd" d="M23.75 13.5C25.2688 13.5 26.5 12.2688 26.5 10.75C26.5 9.23122 25.2688 8 23.75 8C22.2312 8 21 9.23122 21 10.75C21 12.2688 22.2312 13.5 23.75 13.5Z" fill="black"/>
<path fill-rule="evenodd" clip-rule="evenodd" d="M16.75 13.5C18.2688 13.5 19.5 12.2688 19.5 10.75C19.5 9.23122 18.2688 8 16.75 8C15.2312 8 14 9.23122 14 10.75C14 12.2688 15.2312 13.5 16.75 13.5Z" fill="black"/>
<path fill-rule="evenodd" clip-rule="evenodd" d="M9.75 13.5C11.2688 13.5 12.5 12.2688 12.5 10.75C12.5 9.23122 11.2688 8 9.75 8C8.23122 8 7 9.23122 7 10.75C7 12.2688 8.23122 13.5 9.75 13.5Z" fill="black"/>
</g>
<defs>
<clipPath id="clip0">
<rect width="375" height="20" fill="white"/>
</clipPath>
</defs>
</svg>
